<svg xmlns="http://www.w3.org/2000/svg" viewBox="0 0 38.07 66.85"><defs><style>.cls-1{fill:#f7c156;}.cls-2{fill:#ffeaa1;}.cls-3{fill:#56bfc8;}.cls-4{fill:#996c41;}.cls-5{fill:#facf96;}.cls-6{fill:#f5bc34;}.cls-7{fill:#ed7989;}.cls-8{fill:#619b92;}.cls-9{fill:#a2a31e;}</style></defs><g id="圖層_2" data-name="圖層 2"><g id="レイヤー_2" data-name="レイヤー 2"><circle class="cls-1" cx="19.03" cy="19.03" r="19.03"/><polyline class="cls-1" points="12.98 36.55 19.72 66.85 25.09 36.55"/></g><g id="レイヤー_5" data-name="レイヤー 5"><path class="cls-2" d="M14.49,11.41s-2.85-2.86.17-4.14,4.25,1.37,4.54.54,1.77,2.43.13,3.78-4.22.56-4.22.56"/><path class="cls-3" d="M17.47,7.14s2.82.38,2.23-.34.67.22.67.22.37,2.83-.4,3.6-1.63-.77-1.63-.77l-.46.44"/><rect class="cls-4" x="11.71" y="10.7" width="1.15" height="11.76" rx="0.57" transform="matrix(0.86, 0.51, -0.51, 0.86, 10.22, -3.95)"/><path class="cls-5" d="M17,18.58s-.25-1.07,4.05-1-3.26-8.93,4.26-7.16,6.74,7.64,6.74,7.64-1.83,12.72-9.56,10.49-7.77-5.1-7-7.35S17,18.58,17,18.58Z"/><rect class="cls-6" x="18.14" y="21.35" width="2.89" height="3.72" rx="1.45" transform="translate(-9.95 16.14) rotate(-36.38)"/><rect class="cls-7" x="22.43" y="23.21" width="3.91" height="3.91" rx="1.95"/><rect class="cls-8" x="26.08" y="20.05" width="3.84" height="2.89" rx="1.44" transform="translate(-7.24 19.49) rotate(-34.26)"/><path class="cls-9" d="M26.41,14.59s-1.87.55-.91,2.09,2,1.37,2,1.37l2.38-1.12s2.33-.59-.46-1.67"/></g></g></svg>