<svg xmlns="http://www.w3.org/2000/svg" viewBox="0 0 142.03 136.73"><defs><style>.cls-1{fill:#aed067;}.cls-2{fill:#2d2d4a;}</style></defs><g id="圖層_2" data-name="圖層 2"><g id="OBJECTS"><path class="cls-1" d="M140.49,34.27a37.49,37.49,0,0,0-7.59-13.41,3.21,3.21,0,0,0-1.42-1.57C125.14,12.67,116.65,8,107.78,5.1,77.32-5,37-1.26,17.71,27.22a3.18,3.18,0,0,0-.57,1.66,32.53,32.53,0,0,0-3.73,11.41c-1.36,10.35,1.09,21.4-3.34,31.22C6.84,78.65,1.76,84.31.44,92.29-1.73,105.36,4.32,119,14.27,127.44c11.31,9.59,27.07,11.35,41,7.14C71.15,129.76,81.78,118.3,91,105c4.78-6.88,9.32-14,15.37-19.86,6.19-6,14-9.79,20.86-14.87C139,61.62,145.08,48.74,140.49,34.27ZM44.59,129.1l.08.05h-.11Z"/><path class="cls-2" d="M35.69,50.5a5.32,5.32,0,0,0-1-3.18,2.47,2.47,0,0,0-3.22-.72.63.63,0,0,0,.63,1.08,1.13,1.13,0,0,1,1.51.31,1.45,1.45,0,0,0-1.22.3l-.11.06a1.2,1.2,0,0,0-.56.84,4.22,4.22,0,0,0-.39,1.52A5.27,5.27,0,0,0,32,53.9a2.57,2.57,0,0,0,1.19,1.38,1.61,1.61,0,0,0,2.07-.7A5.74,5.74,0,0,0,35.69,50.5Z"/><path class="cls-2" d="M55.19,50.5a5.32,5.32,0,0,0-1-3.18,2.47,2.47,0,0,0-3.22-.72.63.63,0,0,0,.63,1.08,1.13,1.13,0,0,1,1.51.31,1.45,1.45,0,0,0-1.22.3l-.11.06a1.2,1.2,0,0,0-.56.84,4.22,4.22,0,0,0-.39,1.52,5.27,5.27,0,0,0,.71,3.19,2.57,2.57,0,0,0,1.19,1.38,1.61,1.61,0,0,0,2.07-.7A5.74,5.74,0,0,0,55.19,50.5Z"/><path class="cls-2" d="M29.22,25.89a23.87,23.87,0,0,0-2.47,8.94c-.3,3,.17,5.84.36,8.82a56,56,0,0,1-.29,9c-.59,6.06-1.72,12.09-1.93,18.19a22.72,22.72,0,0,0,.8,7.15c1.67,5.64,6.09,9.51,11.46,11.61A42.82,42.82,0,0,0,50.79,92.1c5.08.23,10.18.21,14.82-2.13a26.93,26.93,0,0,0,12.25-13.6l-.44.44c4.2-.86,7.15-5.16,8.31-9,1.4-4.63,2.14-15.33-5.51-14.27-1.5.21-4,1-4.57,2.61l.77-.44a9.94,9.94,0,0,1-4.08-2C69,51.23,67,47.25,66,43.25a42.17,42.17,0,0,1-1-12.38.64.64,0,0,0-.79-.6l-.12,0c-.25,0-.5.06-.74.09-.89.1-1.77.18-2.66.25a82.24,82.24,0,0,1-8.6.22c-7.32-.19-15.23-1.25-21.54-5.24A17.35,17.35,0,0,1,23,15.71a.62.62,0,0,0-1.2.33c4.42,15.44,24.79,16.78,38,15.9,1.58-.1,3.16-.24,4.73-.46l-.79-.61c-.42,9,1,21.41,10.53,25.49a7.71,7.71,0,0,0,1.76.57.65.65,0,0,0,.77-.43c.23-.66,1.88-1.3,2.64-1.51a4.39,4.39,0,0,1,4.2.66c2,1.76,1.82,5.13,1.63,7.49a17,17,0,0,1-2.86,8.58,10.69,10.69,0,0,1-4,3.36c-.65.31-1.46.37-1.87,1-.06.1.07-.14,0,.06l-.23.51c-.25.54-.53,1.07-.82,1.59a29.8,29.8,0,0,1-3.48,5,20.88,20.88,0,0,1-15.22,7.68c-6.56.21-13.47-.13-19.62-2.61a17.56,17.56,0,0,1-9.07-7.55,18.59,18.59,0,0,1-2.06-9.2c.12-7.88,2-15.62,2.28-23.49.14-4-.71-7.88-.5-11.84a25.49,25.49,0,0,1,1.85-8.48c.16-.4.34-.8.54-1.19.39-.7-.69-1.34-1.07-.63Z"/><path class="cls-2" d="M39.88,50.72a54.19,54.19,0,0,0-3,6.55c-.93,2.52-2.16,6.44.24,8.57,1.38,1.22,3.39,1.1,5.08.8.8-.13.46-1.34-.33-1.2-1.58.27-3.72.37-4.51-1.35-.72-1.56-.28-3.4.2-5A45,45,0,0,1,41,51.36c.38-.71-.7-1.35-1.08-.64Z"/><path class="cls-2" d="M36.86,41.27c-2.21-1.86-5.66-3-8.25-1.27-.66.45,0,1.54.63,1.08a4.68,4.68,0,0,1,4.56-.21,10.55,10.55,0,0,1,1.62.87l.49.35c.13.1-.1-.08,0,0l0,0a.64.64,0,0,0,.88,0,.62.62,0,0,0,0-.88Z"/><path class="cls-2" d="M49.24,42.25a8,8,0,0,1,.77-.4l.3-.12.52-.19a7.67,7.67,0,0,1,1.05-.26A4.56,4.56,0,0,1,56.55,43a.63.63,0,1,0,1.08-.63,5.84,5.84,0,0,0-2.78-2.15,6.24,6.24,0,0,0-3-.22,8.64,8.64,0,0,0-3.27,1.15.63.63,0,0,0,.63,1.08Z"/><path class="cls-2" d="M27.59,33.81c-2.81-.62-5.44-3.34-7.17-5.47A19.24,19.24,0,0,1,16.1,14.09a15,15,0,0,1,2.13-6.15c.71-1.12,1.85-2.62,3.24-2.91s3.14.69,4.37,1.21c2.09.88,4.16,1.81,6.32,2.53A20.21,20.21,0,0,0,38.91,10a43.92,43.92,0,0,0,5-.5c4.64-.61,9.27-1.27,14-1.5,8.54-.41,20-.13,24.82,8.23a25.08,25.08,0,0,1,2.74,15c0,.36.32.58.62.62-.26,0,0,0,.13,0s.48.11.72.18A9.3,9.3,0,0,1,89,33a10,10,0,0,1,4.6,6.15c1,3.68.58,7.89,0,11.61A43.34,43.34,0,0,1,90.31,62c-1.52,3.32-3.65,6.75-7,8.49-.71.37-.08,1.45.64,1.08C87,70,89.17,67,90.73,64a42.2,42.2,0,0,0,3.93-12.09c1.15-6.56,1.94-15.33-4.31-19.63A10,10,0,0,0,86,30.58l.63.63a27.42,27.42,0,0,0-2.1-14,15.58,15.58,0,0,0-7.69-7.88C72,7.1,66.28,6.64,61,6.67A123.45,123.45,0,0,0,45.53,8c-1.88.25-3.77.53-5.66.67a19.09,19.09,0,0,1-7.55-1.2C30,6.73,27.84,5.71,25.61,4.8c-1.31-.54-2.94-1.32-4.4-1-3.33.75-5.26,5.18-6,8.1a20,20,0,0,0,3.53,16.3A22.81,22.81,0,0,0,23.42,33a10.58,10.58,0,0,0,3.84,2c.78.18,1.12-1,.33-1.2Z"/><path class="cls-2" d="M83.36,59.6a4.48,4.48,0,0,0-2-1.33A2.79,2.79,0,0,0,78.06,60a11.35,11.35,0,0,0-1,3.72,31.53,31.53,0,0,0-.21,3.88c0,.7,0,1.4.07,2.1s1.31.8,1.25,0a32.52,32.52,0,0,1,0-4.63,16.3,16.3,0,0,1,.55-3.47c.26-.86.78-2.27,1.88-2.2a2.89,2.89,0,0,1,1.83,1.07c.54.6,1.42-.28.88-.88Z"/><path class="cls-2" d="M25.67,66.82c3.55.75,7,2,10.52,2.73A81.53,81.53,0,0,0,47.94,71c7.24.48,15.9.79,22-3.85,3.7-2.81,4.55-7.37,4.48-11.77a.63.63,0,0,0-1.25,0c.06,3.92-.57,8.09-3.83,10.66a19.64,19.64,0,0,1-9.06,3.55,58,58,0,0,1-11.86.19,82.35,82.35,0,0,1-11.39-1.37c-3.72-.75-7.32-2-11-2.83-.78-.17-1.12,1-.33,1.2Z"/><path class="cls-2" d="M36,76.82c2.3,2.43,6.21,2.6,9.13,1.39a17,17,0,0,0,5.16-3.56c.58-.56-.3-1.44-.88-.88-2.42,2.31-5.72,4.55-9.24,3.83a7.05,7.05,0,0,1-2.49-1,4.31,4.31,0,0,1-.8-.65c-.55-.58-1.43.3-.88.89Z"/><path class="cls-2" d="M47.29,91.28c0,2.88-.23,5.86,0,8.73a19.91,19.91,0,0,0,4.33,10.11,26.15,26.15,0,0,0,9.29,7.29.67.67,0,0,0,.76-.09,73.49,73.49,0,0,0,14.1-16.86c.58-1,1.13-2,1.61-3.07a6.79,6.79,0,0,0,.73-1.92,18.77,18.77,0,0,0,0-2.37L78,83.42l-.1-7.21a.63.63,0,0,0-1.25,0l.21,15.58,0,3.13a7.39,7.39,0,0,1-1.31,3.37,59.8,59.8,0,0,1-8.73,12,81.24,81.24,0,0,1-6,6.14l.76-.1c-5.35-2.61-10-6.81-12-12.49a17.41,17.41,0,0,1-1-6.54v-6a.63.63,0,0,0-1.25,0Z"/><path class="cls-2" d="M11.69,126.37a42.18,42.18,0,0,1,2.81-6.82c1.7-3.28,3.82-6.48,7.41-7.81,6.87-2.55,13.55-5.7,20.22-8.72l6.1-2.77c.73-.34.1-1.42-.63-1.08q-8.1,3.72-16.26,7.3c-3.25,1.42-6.51,2.86-9.84,4.09-3.49,1.29-5.7,4.09-7.49,7.26A41.71,41.71,0,0,0,10.49,126c-.24.77,1,1.1,1.2.33Z"/><path class="cls-2" d="M77.2,96.08a109.45,109.45,0,0,0,17.16,10.17,47.65,47.65,0,0,0,6.13,2.43,14,14,0,0,1,5.17,2.78,25.34,25.34,0,0,1,6.14,8.81,34.65,34.65,0,0,1,2.19,6.1c.19.78,1.39.45,1.2-.33a32.14,32.14,0,0,0-7.45-14.32,15.93,15.93,0,0,0-4.39-3.3c-1.82-.89-3.83-1.32-5.7-2.08a86.11,86.11,0,0,1-12.79-6.72c-2.39-1.47-4.75-3-7-4.62-.65-.47-1.28.62-.63,1.08Z"/></g></g></svg>