<svg xmlns="http://www.w3.org/2000/svg" viewBox="0 0 142.03 152.85"><defs><style>.cls-1{fill:#9acfc9;}.cls-2{fill:#2d2d4a;}</style></defs><g id="圖層_2" data-name="圖層 2"><g id="OBJECTS"><path class="cls-1" d="M140.49,50.39A37.49,37.49,0,0,0,132.9,37a3.24,3.24,0,0,0-1.41-1.57c-6.35-6.62-14.84-11.24-23.71-14.19C77.32,11.1,37,14.86,17.71,43.34A3.18,3.18,0,0,0,17.14,45a32.53,32.53,0,0,0-3.73,11.41c-1.36,10.36,1.09,21.4-3.34,31.22-3.23,7.14-8.31,12.8-9.63,20.78-2.17,13.07,3.88,26.72,13.83,35.15,11.31,9.59,27.07,11.35,41,7.14,15.89-4.81,26.52-16.28,35.73-29.54,4.78-6.88,9.32-14,15.37-19.86s14-9.79,20.86-14.86C139,77.74,145.08,64.87,140.49,50.39Zm-95.9,94.83.08.05h-.11Z"/><path class="cls-2" d="M44.33,60.56a5.78,5.78,0,0,0-1.08-3.43,2.67,2.67,0,0,0-3.47-.79.68.68,0,0,0,.68,1.17,1.22,1.22,0,0,1,1.62.34,1.58,1.58,0,0,0-1.32.32l-.11.06a1.25,1.25,0,0,0-.61.89,4.75,4.75,0,0,0-.43,1.64,5.76,5.76,0,0,0,.74,3.44,2.81,2.81,0,0,0,1.28,1.49A1.72,1.72,0,0,0,43.86,65,6.14,6.14,0,0,0,44.33,60.56Z"/><path class="cls-2" d="M62.31,60.53a5.8,5.8,0,0,0-1.08-3.43,2.67,2.67,0,0,0-3.47-.79.67.67,0,0,0,.67,1.16,1.22,1.22,0,0,1,1.62.34,1.59,1.59,0,0,0-1.31.32l-.11.06a1.31,1.31,0,0,0-.62.9,4.7,4.7,0,0,0-.43,1.64,5.74,5.74,0,0,0,.74,3.43,2.77,2.77,0,0,0,1.28,1.49,1.74,1.74,0,0,0,2.24-.73A6.26,6.26,0,0,0,62.31,60.53Z"/><path class="cls-2" d="M38.17,45.23c-.05,2.13-.2,4.26-.43,6.37a74.61,74.61,0,0,1-1.63,8.27,25.54,25.54,0,0,0,.33,11.37,35.75,35.75,0,0,0,8.77,15.69,52.39,52.39,0,0,0,9.59,8c1.88,1.23,4.31,1,6.41.51A31.73,31.73,0,0,0,79.42,83.37c.51-.71-.66-1.38-1.16-.68A30.76,30.76,0,0,1,62.44,93.76c-1.89.57-4.53,1.28-6.43.38a28.47,28.47,0,0,1-5.32-3.89,49.14,49.14,0,0,1-4-3.74c-6.45-6.72-11.28-16.57-9.3-26.1.57-2.72,1.31-5.35,1.64-8.13.27-2.34.46-4.7.51-7.05a.68.68,0,0,0-1.35,0Z"/><path class="cls-2" d="M84,77.89c6.49-1.55,9.63-7.7,9.23-14-.14-2.22-.62-4.78-2.06-6.55s-3.89-1.38-5.43.28a18,18,0,0,0-3.64,7.1l1.32.18c.86-6.44.44-13.18,0-19.64a.68.68,0,0,0-.85-.65c-13.1,2.68-27.51,4.26-40.63.7A37.33,37.33,0,0,1,38.15,44c-.2-.08-1.24-.75-1.46-.68.09,0,.2.63.21.2a4.28,4.28,0,0,0-.25-1,31.52,31.52,0,0,1-.68-4,28.21,28.21,0,0,1,1.31-12.7A21.16,21.16,0,0,1,49.21,13.79c4-1.71,8.31-1.66,12.58-1a30,30,0,0,1,15.3,6.71c5.79,5.14,7.56,13,9.14,20.24a57.73,57.73,0,0,1,1.66,14.46c0,.2,0,.41,0,.61-.08.79,1.09.87,1.32.18a65.28,65.28,0,0,0,2.75-16.6q.25-4.23.09-8.48a40.38,40.38,0,0,0-.68-7.11,19,19,0,0,0-4.67-8.74C82.3,9.34,76.05,6.55,69.92,5A38.37,38.37,0,0,0,62.7,3.75a6.75,6.75,0,0,0-2.33,0,5.87,5.87,0,0,0-1.27.85L45.82,14c-.7.5,0,1.67.68,1.17l11.42-8,2.41-1.71c.17-.11.34-.25.51-.35s-.42.07-.12,0,.32,0,.49,0a27,27,0,0,1,5.94.66C73,6.9,79.05,9.16,83.68,13.08A19,19,0,0,1,89.4,21a21.37,21.37,0,0,1,1.09,5.72c.22,2.82.29,5.66.23,8.5-.14,6.46-.79,13.3-2.84,19.48l1.32.17a43,43,0,0,0-.75-10.55,95.52,95.52,0,0,0-2.93-12.6C84.43,28,83.2,24.56,80.83,21.53c-3.74-4.77-9.29-7.76-15.07-9.27a31.3,31.3,0,0,0-13.67-.86,22.65,22.65,0,0,0-8,3.65,21.76,21.76,0,0,0-6,6.15,25.54,25.54,0,0,0-3.65,14.07,27.4,27.4,0,0,0,1.16,8.58C36,45,38,45.41,39,45.77a51.89,51.89,0,0,0,12.71,2.51,99.57,99.57,0,0,0,23.39-1c2.63-.39,5.25-.86,7.85-1.39l-.85-.65c.43,6.46.86,13.2,0,19.64-.11.77,1.11.88,1.32.18.56-1.91,3.85-10.31,6.69-6.95a9.9,9.9,0,0,1,1.77,5.44,14.91,14.91,0,0,1-1.13,7.32,10.14,10.14,0,0,1-7.08,5.74A.67.67,0,0,0,84,77.89Z"/><path class="cls-2" d="M59.18,95a31.86,31.86,0,0,1-.13,5.94c-.23,2-.47,4.35-2.14,5.63A24.1,24.1,0,0,1,52,109.28c-2.26,1-4.56,1.93-6.88,2.8-4.58,1.74-9.24,3.3-13.79,5.14a21.34,21.34,0,0,0-3.95,1.88,20.4,20.4,0,0,0-4.56,4.8,90.7,90.7,0,0,0-7,10.94c-.41.76.75,1.44,1.16.68A98.76,98.76,0,0,1,23,126a25.33,25.33,0,0,1,4.78-5.49,17.23,17.23,0,0,1,4.17-2.06c4.57-1.83,9.25-3.41,13.86-5.16,3.95-1.51,8.37-3,11.81-5.5,1.83-1.37,2.3-3.38,2.64-5.59A31.12,31.12,0,0,0,60.52,95c-.06-.85-1.41-.86-1.34,0Z"/><path class="cls-2" d="M61,4.9c-.27.22.25-.17.35-.23a15.49,15.49,0,0,1,1.39-.77,23.26,23.26,0,0,1,5.47-1.81,36.47,36.47,0,0,1,9.67-.62,31.8,31.8,0,0,1,9.66,1.79c11.62,4.46,17.59,17.24,19.28,28.83a64.47,64.47,0,0,1-.76,21.46c-1.4,7.31-2.86,14.58-2.14,22.07.29,3,1,5.85,1.17,8.82a32.66,32.66,0,0,1-.46,7.39,34.55,34.55,0,0,1-6.56,14.68,50.48,50.48,0,0,1-15.92,13.27,31.52,31.52,0,0,0-4.79,2.76,21.56,21.56,0,0,0-3.47,3.61,20.44,20.44,0,0,0-4.09,8.66,11.16,11.16,0,0,0-.06,3.78l1.13-.66a29.85,29.85,0,0,1-10-17.18c-1.21-6.6.42-13.4,3.62-19.23,3-5.46,8-8.84,12.81-12.52a25.62,25.62,0,0,0,6.51-6.94,10.72,10.72,0,0,0,1.85-4.81c0-.87-1.3-.87-1.34,0a10.54,10.54,0,0,1-1.86,4.42,24.81,24.81,0,0,1-6.29,6.51c-4.82,3.62-9.75,7.11-12.76,12.5A31.18,31.18,0,0,0,59.4,119.6,30.35,30.35,0,0,0,64.74,133a29.13,29.13,0,0,0,5.2,5.88.68.68,0,0,0,1.12-.66c-.53-3.18.89-6.55,2.5-9.21A21.69,21.69,0,0,1,77,124.7,13.24,13.24,0,0,1,79,123c.9-.57,1.93-1,2.87-1.49a53.42,53.42,0,0,0,16.46-13.13,36.32,36.32,0,0,0,7.28-14.71,37.77,37.77,0,0,0,0-15c-1.38-8.12,0-16,1.55-24a68.45,68.45,0,0,0,1.1-21.41C106.89,21.4,101.4,8.6,90.24,3,84.52.11,77.51-.42,71.23.27c-3.62.39-7.55,1.26-10.63,3.3a6.42,6.42,0,0,0-.53.38c-.68.53.28,1.48,1,1Z"/><path class="cls-2" d="M90.82,63.08a2.9,2.9,0,0,0-3.75-2.73,3.51,3.51,0,0,0-1.91,2.33,15.52,15.52,0,0,0-.71,3.89,42.83,42.83,0,0,0-.07,4.94c0,.86,1.38.86,1.34,0a29.39,29.39,0,0,1,.39-7.2,5.08,5.08,0,0,1,1-2.37,1.35,1.35,0,0,1,1.81-.09,1.64,1.64,0,0,1,.5.81c0,.13.07.25.1.38s0-.13,0,0c.07.85,1.41.86,1.35,0Z"/><path class="cls-2" d="M90.25,115.59a73,73,0,0,0,10.3,6.56A10.33,10.33,0,0,1,103,123.6a12.44,12.44,0,0,1,2,2.34,35.89,35.89,0,0,1,3.14,5.82c.52,1.18,1,2.38,1.42,3.6.28.81,1.58.47,1.3-.36a42.48,42.48,0,0,0-4.2-9,11.79,11.79,0,0,0-4.23-4.44,74.12,74.12,0,0,1-6.87-3.92c-1.58-1-3.14-2.11-4.67-3.23-.69-.52-1.37.65-.68,1.16Z"/><path class="cls-2" d="M27.72,120.23a70.9,70.9,0,0,0,9.94,2.51,90.24,90.24,0,0,0,23.25,1.5c.86-.06.86-1.4,0-1.34a89,89,0,0,1-23.21-1.52,69.55,69.55,0,0,1-9.62-2.45c-.82-.29-1.17,1-.36,1.3Z"/><path class="cls-2" d="M77,124.45c2.91.07,5.84,0,8.75-.21,4.74-.31,9.8-.75,14.22-2.61.78-.34.44-1.64-.36-1.3-4.4,1.86-9.42,2.29-14.14,2.58-2.81.18-5.65.27-8.47.2a.67.67,0,0,0,0,1.34Z"/><path class="cls-2" d="M49.34,62.85a5.18,5.18,0,0,0-4,1.89,4.62,4.62,0,0,0-.56,3.16,5.14,5.14,0,0,0,1.32,3,4.69,4.69,0,0,0,3.82,1.28c.85-.07.86-1.41,0-1.35A3.18,3.18,0,0,1,46.1,68a3.77,3.77,0,0,1,.25-2.39A2.87,2.87,0,0,1,48,64.44a5.09,5.09,0,0,1,.56-.14l.26,0h.06a3.27,3.27,0,0,1,.44,0c.86,0,.86-1.38,0-1.35Z"/><path class="cls-2" d="M48.2,79.38a3.12,3.12,0,0,1,2.08-1.49c.7-.09,1.38.14,2.1,0A8,8,0,0,0,54,77.27c1.54-.66,3.11-.11,4.72-.36A6.33,6.33,0,0,0,62.37,75c.59-.63-.36-1.58-.95-1a5.35,5.35,0,0,1-4.12,1.58,10.68,10.68,0,0,0-2.65,0,8.51,8.51,0,0,0-1.72.64,3.25,3.25,0,0,1-1.71.31,3.94,3.94,0,0,0-2.12.25A4.79,4.79,0,0,0,47,78.7a.67.67,0,0,0,1.16.68Z"/><path class="cls-2" d="M44.88,52.56a5.29,5.29,0,0,0-1.82-1.25,4.67,4.67,0,0,0-4.42.33c-.73.46-.06,1.62.68,1.16a4.06,4.06,0,0,1,1-.45,2.58,2.58,0,0,1,.87-.12l.41,0c-.13,0,.09,0,.11,0l.22,0,.36.11.23.08c-.11,0,0,0,0,0a5.36,5.36,0,0,1,.62.34l.27.18.1.08c-.15-.11,0,0,0,0a4.86,4.86,0,0,1,.41.38c.59.63,1.54-.32,1-.95Z"/><path class="cls-2" d="M56.4,52.87a5.43,5.43,0,0,1,2-.79,7.43,7.43,0,0,1,5.08.79c.77.41,1.45-.75.68-1.16a8.9,8.9,0,0,0-5.94-1,7.27,7.27,0,0,0-2.54,1c-.71.48,0,1.65.68,1.16Z"/><path class="cls-2" d="M49.36,79.69a12.23,12.23,0,0,0,7.92-1.46c.75-.42.08-1.58-.68-1.16a11.2,11.2,0,0,1-4.79,1.39,12.05,12.05,0,0,1-1.59,0l-.28,0c-.1,0-.24,0,0,0l-.17,0a.69.69,0,0,0-.83.47.68.68,0,0,0,.47.83Z"/></g></g></svg>