<svg xmlns="http://www.w3.org/2000/svg" viewBox="0 0 142.03 136.73"><defs><style>.cls-1{fill:#bcafda;}.cls-2{fill:#2d2d4a;}</style></defs><g id="圖層_2" data-name="圖層 2"><g id="OBJECTS"><path class="cls-1" d="M140.49,34.27a37.49,37.49,0,0,0-7.59-13.41,3.21,3.21,0,0,0-1.42-1.57C125.14,12.67,116.65,8,107.78,5.1,77.32-5,37-1.26,17.71,27.22a3.18,3.18,0,0,0-.57,1.66,32.53,32.53,0,0,0-3.73,11.41c-1.36,10.35,1.09,21.4-3.34,31.22C6.84,78.65,1.76,84.31.44,92.29-1.73,105.36,4.32,119,14.27,127.44c11.31,9.59,27.07,11.35,41,7.14C71.15,129.76,81.78,118.3,91,105c4.78-6.88,9.32-14,15.37-19.86,6.19-6,14-9.79,20.86-14.87C139,61.62,145.08,48.74,140.49,34.27ZM44.59,129.1l.08.05h-.11Z"/><path class="cls-2" d="M45.42,48.49a5.41,5.41,0,0,0-1-3.18,2.48,2.48,0,0,0-3.23-.71.63.63,0,0,0,.63,1.08,1.14,1.14,0,0,1,1.51.3,1.49,1.49,0,0,0-1.22.31l-.11.05a1.22,1.22,0,0,0-.56.84A4.27,4.27,0,0,0,41,48.71a5.24,5.24,0,0,0,.71,3.18,2.57,2.57,0,0,0,1.19,1.38A1.6,1.6,0,0,0,45,52.58,5.77,5.77,0,0,0,45.42,48.49Z"/><path class="cls-2" d="M65.92,48.49a5.41,5.41,0,0,0-1-3.18,2.48,2.48,0,0,0-3.23-.71.63.63,0,0,0,.63,1.08,1.14,1.14,0,0,1,1.51.3,1.5,1.5,0,0,0-1.22.31l-.1.05a1.23,1.23,0,0,0-.57.84,4.27,4.27,0,0,0-.39,1.53,5.24,5.24,0,0,0,.71,3.18,2.61,2.61,0,0,0,1.19,1.38,1.62,1.62,0,0,0,2.08-.69A5.77,5.77,0,0,0,65.92,48.49Z"/><path class="cls-2" d="M36.11,24.71a76.06,76.06,0,0,0-.29,10.35c.07,2.54.41,5.08.36,7.62,0,2.09-.24,4.17-.45,6.25-.95,9.7-2.25,20.51,2.84,29.37,3.61,6.27,11.22,8.3,18,8.64,7.22.36,15.26-.86,21.57-4.55,4-2.34,6.52-6.34,8.43-10.48A24.39,24.39,0,0,0,89.11,63l-.46.6a11.38,11.38,0,0,0,5.22-3.07c3.3-3.32,3.9-8.22,3-12.66-.62-3.16-2.63-6.73-6.38-5.93a6.17,6.17,0,0,0-3.24,1.92,6.72,6.72,0,0,0-1.4,3.77,84.31,84.31,0,0,0-.62,11.78l.62-.62-4.16-.17.62.63c.25-2,.41-4,.53-6a32.89,32.89,0,0,0-.34-9.4,7.67,7.67,0,0,0-3-4.06,23.67,23.67,0,0,1-4.74-5C72.32,31,71.38,26.35,71,21.87a.65.65,0,0,0-.46-.6c-3.95-1.63-8.85-1.13-12.83,0l.7.92a8.84,8.84,0,0,1,4.46-3.55c.61-.24.6-1.24-.16-1.22a20.65,20.65,0,0,0-5.23,1,42.9,42.9,0,0,0-12.59,6.27l.94.54c-.08-2.94,2.53-5.34,4.86-6.63.66-.37.18-1.25-.48-1.14a29.16,29.16,0,0,0-8,2.74,29.3,29.3,0,0,0-12.86,12l1.15.49A63.11,63.11,0,0,1,33.18,26c1.45-3.14,3.26-7.21,6.37-9a.63.63,0,0,0-.48-1.14c-4,1.12-8.58,3-11.27,6.33l1,.61a3.87,3.87,0,0,1,.2-.51,16.26,16.26,0,0,1,.88-1.65,21,21,0,0,1,4.33-5C40.93,9.9,50.16,8.14,58.69,8c9-.15,18,1.43,26.71,3.64a.62.62,0,0,0,.34-1.2c-13.19-3.36-28-5.72-41.33-1.61-6,1.84-11.7,5.23-15.21,10.52a12.72,12.72,0,0,0-1.56,3c-.19.58.64,1.1,1,.61,2.57-3.13,6.9-4.94,10.72-6l-.48-1.15c-3.24,1.93-5.17,6-6.7,9.25a63.68,63.68,0,0,0-2.92,7.29.63.63,0,0,0,1.14.49A29,29,0,0,1,50.57,18.64l-.48-1.14c-2.72,1.5-5.57,4.33-5.48,7.71a.63.63,0,0,0,.94.54A41.81,41.81,0,0,1,57.84,19.6a19.47,19.47,0,0,1,4.9-.93l-.17-1.23a10.13,10.13,0,0,0-5.21,4.12.64.64,0,0,0,.71.92c3.78-1.08,8.41-1.55,12.17,0l-.46-.61c.53,6.72,2.46,13.1,7.62,17.68,1.18,1.05,2.84,2.05,3.57,3.5a10.14,10.14,0,0,1,.73,3.82c.1,1.7.07,3.41,0,5.11-.1,2.42-.29,4.83-.59,7.23,0,.34.32.61.63.62L85.9,60a.64.64,0,0,0,.63-.63c0-2.88.08-5.77.3-8.64.19-2.61.13-5.66,2.69-7.11,3-1.7,5.22.73,6,3.57,1.06,4,.74,8.83-2.14,12a10.16,10.16,0,0,1-5,3.13.65.65,0,0,0-.46.61A21.77,21.77,0,0,1,86,70.12c-1.55,3.77-3.79,8-7.22,10.39-5.61,3.9-13.24,5.2-19.94,5.23-6.44,0-14.65-1.27-18.56-7-5.47-8.09-4.37-18.92-3.46-28.11.22-2.27.47-4.54.57-6.81.12-2.47-.17-4.91-.27-7.37a77.31,77.31,0,0,1,.24-11.69c.09-.8-1.16-.8-1.25,0Z"/><path class="cls-2" d="M28.84,22.71a8.18,8.18,0,0,1,.63-1.4,19.81,19.81,0,0,1,2.38-3.5,27.87,27.87,0,0,1,13-8.17C53.89,6.8,63.79,7.3,73,8.86c3.42.58,6.81,1.33,10.17,2.2a26.77,26.77,0,0,1,2.59.73,13.18,13.18,0,0,1,4,2.8c7.21,7.27,5.43,19.2,2.83,28a.63.63,0,0,0,1.21.33c2.54-8.66,4.18-19.64-1.62-27.44a15.65,15.65,0,0,0-4.83-4.33c-2.44-1.36-5.37-1.75-8-2.35-10.37-2.33-21.5-3.61-32-1.16A31.07,31.07,0,0,0,32,15.76a21.63,21.63,0,0,0-3.22,4.16,8.36,8.36,0,0,0-1.15,2.34.35.35,0,0,1,0,.11c-.25.77.95,1.1,1.2.34Z"/><path class="cls-2" d="M92.4,46.26a3.65,3.65,0,0,0-3.28.85,4.21,4.21,0,0,0-.84,3.08V57a.63.63,0,0,0,1.25,0c0-2.52,0-5,0-7.57a1.84,1.84,0,0,1,1.31-1.94,2.93,2.93,0,0,1,.9-.09l.35,0c-.23,0-.07,0,0,0,.79.15,1.12-1,.33-1.21Z"/><path class="cls-2" d="M28.24,39.67a102.88,102.88,0,0,1,14.26-.36c1.22.07,2.79,0,3.84.75,1.41.94,2.12,2.78,2.53,4.36a22.69,22.69,0,0,1,.53,5.76,9.56,9.56,0,0,1-1.58,5.71C46,58.24,43,58.53,40.24,58.44a44,44,0,0,1-5.73-.35,5.5,5.5,0,0,1-3.46-1.64c-1.26-1.48-1.57-3.69-1.79-5.54A96,96,0,0,1,28.87,39a.63.63,0,0,0-1.25,0A100.8,100.8,0,0,0,28,50.7a14,14,0,0,0,1.62,5.88c2,3.12,6.15,3,9.4,3.07,2.93.09,6,.19,8.48-1.68a8.51,8.51,0,0,0,3-5.92,27.77,27.77,0,0,0,0-5.47C50.27,43.7,49.1,39.47,46,38.5a18.5,18.5,0,0,0-4.7-.49c-2-.07-3.94,0-5.91,0-2.38.08-4.75.2-7.12.39C27.45,38.48,27.44,39.73,28.24,39.67Z"/><path class="cls-2" d="M77.83,38.42A84.49,84.49,0,0,0,62,38.19a5.69,5.69,0,0,0-3.79,1.51A10,10,0,0,0,56,44.22a24.48,24.48,0,0,0-.53,6.28,10.36,10.36,0,0,0,1.89,6.21c1.87,2.4,5,3.06,7.85,3a50.18,50.18,0,0,0,6.6-.39,6.77,6.77,0,0,0,4-1.83c1.48-1.55,1.94-3.84,2.22-5.9A89.11,89.11,0,0,0,78.45,39a.63.63,0,0,0-1.25,0c0,3.59,0,7.21-.28,10.79a14.71,14.71,0,0,1-1.35,5.81c-1.57,2.83-5.33,2.66-8.14,2.75s-5.66.34-8-1.33a7.45,7.45,0,0,1-2.71-5.51,30,30,0,0,1,.09-4.74A11.89,11.89,0,0,1,58.14,42a4.29,4.29,0,0,1,3.46-2.47,58.69,58.69,0,0,1,10-.18c2.07.08,4.15.19,6.22.36C78.63,39.73,78.63,38.48,77.83,38.42Z"/><path class="cls-2" d="M50.45,48.53c-1,2-1.9,4-2.71,6.13a17.92,17.92,0,0,0-1.19,3.9,3.62,3.62,0,0,0,1.72,3.63,7.58,7.58,0,0,0,5.63,1c.79-.15.46-1.36-.33-1.2a6.37,6.37,0,0,1-4.46-.74,2.49,2.49,0,0,1-1.26-2.87,36.31,36.31,0,0,1,2.75-7.25c.3-.66.61-1.31.93-2s-.73-1.35-1.08-.63Z"/><path class="cls-2" d="M53.57,70.56a9.38,9.38,0,0,0,3.72.36,9.92,9.92,0,0,0,6.89-3.77c.5-.62-.38-1.51-.88-.88a8.69,8.69,0,0,1-6.21,3.41,8,8,0,0,1-3.19-.33c-.76-.25-1.09,1-.33,1.21Z"/><path class="cls-2" d="M77.51,39.58l9.13,4.12,1.31.59c.72.33,1.36-.75.63-1.08l-9.13-4.12-1.31-.59c-.72-.33-1.36.75-.63,1.08Z"/><path class="cls-2" d="M55.42,86.37v2a.65.65,0,0,0,.63.63c9.07.46,19.08.9,27.31-3.59a.62.62,0,0,0,.31-.54v-8a.63.63,0,0,0-1.25,0v8l.31-.54a30.09,30.09,0,0,1-12.37,3.42,131.36,131.36,0,0,1-14.31,0l.62.62v-2a.63.63,0,0,0-1.25,0Z"/><path class="cls-2" d="M21.11,119.33a1.89,1.89,0,0,1,.05-.28,7.86,7.86,0,0,1,.31-1.08,9.83,9.83,0,0,1,2-3.16c3.7-4.09,9.07-4.57,14.1-5.84a30.26,30.26,0,0,0,11.83-5.6,11.31,11.31,0,0,0,1.94-1.91,2.4,2.4,0,0,0,.35-1.59c0-2.12.12-4.25.25-6.37a23.83,23.83,0,0,1,.23-2.81c.31-1.67,2.32-2.09,3.76-1.76.78.19,1.12-1,.33-1.2-2-.46-4.8.2-5.27,2.48a35.27,35.27,0,0,0-.42,5.72c-.05,1-.08,2-.11,3a10.09,10.09,0,0,0,0,1.82c0-.17.21-.28,0-.09s-.56.64-.85.92c-3.12,3-7.38,4.84-11.51,6-3.19.87-6.49,1.18-9.57,2.44A16.48,16.48,0,0,0,23,113.47a10,10,0,0,0-3.12,5.86c-.06.8,1.19.8,1.25,0Z"/><path class="cls-2" d="M83.21,85.43c2.11-.36,2.39,1.52,2.31,3.18-.09,2-.45,4.06-.66,6.09-.16,1.54-.5,3.58.21,5a3.31,3.31,0,0,0,2.17,1.46c3.46,1.22,7.1,2,10.62,3,2.06.59,4.12,1.22,6.12,2a15.41,15.41,0,0,1,4.27,2.19c2,1.62,3.35,4.36,4.57,6.56.85,1.53,1.66,3.1,2.38,4.71.33.73,1.4.1,1.08-.63a44,44,0,0,0-6.39-10.75c-2.23-2.62-6.34-3.64-9.48-4.62-3.92-1.21-7.93-2.12-11.85-3.33-.94-.29-2.21-.46-2.49-1.52-.47-1.8,0-4,.24-5.83.38-3,1.75-9.63-3.43-8.74-.79.14-.46,1.34.33,1.2Z"/><path class="cls-2" d="M50.47,46.57l.1-.1.06,0c.1-.09-.12.08,0,0l.17-.12a4.27,4.27,0,0,1,.51-.3l.14-.06c.1-.05-.06,0,.08,0l.37-.12a3.81,3.81,0,0,1,1.69-.13,6,6,0,0,1,2.37,1c.68.45,1.3-.63.63-1.08a6.1,6.1,0,0,0-5-1,4.87,4.87,0,0,0-2,1.11c-.57.57.31,1.45.89.89Z"/></g></g></svg>