<svg xmlns="http://www.w3.org/2000/svg" viewBox="0 0 142.03 136.73"><defs><style>.cls-1{fill:#94a9ef;}.cls-2{fill:#2d2d4a;}</style></defs><g id="圖層_2" data-name="圖層 2"><g id="OBJECTS"><path class="cls-1" d="M140.49,34.27a37.49,37.49,0,0,0-7.59-13.41,3.24,3.24,0,0,0-1.41-1.57C125.14,12.67,116.65,8,107.78,5.1,77.32-5,37-1.26,17.71,27.22a3.18,3.18,0,0,0-.57,1.66,32.53,32.53,0,0,0-3.73,11.41c-1.36,10.35,1.09,21.4-3.34,31.22C6.84,78.65,1.76,84.31.44,92.29-1.73,105.36,4.32,119,14.27,127.44c11.31,9.59,27.07,11.35,41,7.14C71.15,129.76,81.78,118.3,91,105c4.78-6.88,9.32-14,15.37-19.86,6.19-6,14-9.79,20.86-14.87C139,61.62,145.08,48.74,140.49,34.27ZM44.59,129.1l.08.05h-.11Z"/><path class="cls-2" d="M30.76,22a88.41,88.41,0,0,1,.17,9.9c-.08,2.6-.38,5.19-.22,7.79a37.79,37.79,0,0,0,.68,4.72,31.68,31.68,0,0,1,.22,6.88,25.41,25.41,0,0,0,1,8,37.69,37.69,0,0,0,6,11.47,70.4,70.4,0,0,0,9.1,10.47,13.19,13.19,0,0,0,6.75,3.67,14,14,0,0,0,7.07-1.22A54.68,54.68,0,0,0,72.89,77c2.81-2,5.94-4.15,8.11-6.88.49-.62-.39-1.51-.89-.88a34.53,34.53,0,0,1-6.62,5.79,68.58,68.58,0,0,1-9.95,6.28,18.2,18.2,0,0,1-7.62,2.33A10.06,10.06,0,0,1,49.46,81,59.19,59.19,0,0,1,41,71.65a40.27,40.27,0,0,1-6.85-11.81,23.85,23.85,0,0,1-1.27-8,44.93,44.93,0,0,0,0-6.14c-.21-1.62-.62-3.21-.8-4.84a46.29,46.29,0,0,1,.06-7.63A88.92,88.92,0,0,0,32,22c-.06-.79-1.31-.8-1.25,0Z"/><path class="cls-2" d="M67.89,19.62a184.31,184.31,0,0,1-19.46,2.26,72.19,72.19,0,0,1-13.79-.13,16.21,16.21,0,0,1-5-1.27,11.21,11.21,0,0,1-4.89-5.64A9.91,9.91,0,0,1,24.47,7c1.2-2.69,3.75-3.51,6.53-3.54,6.37-.06,12.54,3,18.94,1.85,5.27-1,10.37-2.55,15.7-3.21,6.47-.79,13.52-.59,19.21,3,8.64,5.39,9.81,17,8.28,26.17-.1.6-.21,1.2-.35,1.79l.61-.46c-3.28-.39-6.94,1-8.57,4A11.52,11.52,0,0,0,83.65,41c-.24,2.08-.39,4.17-.43,6.27a40.82,40.82,0,0,0,.21,5.85l.62-.62h-3.5l.63.62a138.59,138.59,0,0,0,.31-14.84c-.09-2.16,0-5.09-1.15-7-1-1.62-3.37-1.83-5-2.37-4.1-1.34-5.9-4.76-6.68-8.83-.16-.79-1.36-.46-1.21.33.66,3.42,2.06,6.86,5.21,8.69A14.5,14.5,0,0,0,76,30.41a9.18,9.18,0,0,1,2.7,1,2.89,2.89,0,0,1,1,2,25.14,25.14,0,0,1,.45,4c.19,3.25.14,6.52,0,9.78-.07,2-.15,4-.29,6a.63.63,0,0,0,.62.63h3.5a.63.63,0,0,0,.63-.63,39,39,0,0,1-.22-4.83q0-2.5.21-5a16.89,16.89,0,0,1,1-5.6c1.31-2.92,4.67-4.23,7.73-3.86a.62.62,0,0,0,.6-.46C96,24.72,95.46,13.76,89.1,7,79.81-3,64.25.73,52.71,3.46a23.56,23.56,0,0,1-7.75.8C41.19,3.9,37.53,2.83,33.77,2.4,31,2.09,27.68,2,25.37,3.84A8.19,8.19,0,0,0,22.56,10c-.19,4.81,2.87,10.28,7.5,12,4,1.48,8.69,1.43,12.91,1.36a151.3,151.3,0,0,0,24.76-2.45l.49-.09C69,20.69,68.68,19.48,67.89,19.62Z"/><path class="cls-2" d="M84.33,67.32a34.23,34.23,0,0,0,4.61-5.92c1.16-1.95,2.24-4.53,1.88-6.86l-.43.77a14.1,14.1,0,0,0,4.94-2.55,11.19,11.19,0,0,0,3.9-7.07c1-5,.1-11.56-5.68-13.09a.63.63,0,0,0-.33,1.21c5.24,1.38,5.66,7.61,4.71,12a9.8,9.8,0,0,1-3.82,6.27,13,13,0,0,1-4.06,2,.65.65,0,0,0-.43.77c0-.25,0,.39,0,.5a8,8,0,0,1-.2,1.54,13.53,13.53,0,0,1-2,4.47,34.48,34.48,0,0,1-4,5.05c-.56.58.32,1.47.88.89Z"/><path class="cls-2" d="M94.47,37.42c-1.69-.69-4-.8-5.42.57-1.12,1.1-1.44,2.95-1.66,4.44a28.31,28.31,0,0,0-.28,4.87c0,.91,0,1.83.15,2.74s1.34.8,1.25,0a31.05,31.05,0,0,1-.06-6,12.64,12.64,0,0,1,1-4.46,2.62,2.62,0,0,1,2.64-1.37,6,6,0,0,1,2,.43c.74.3,1.07-.9.33-1.2Z"/><path class="cls-2" d="M59.76,83.37v5a.63.63,0,0,0,1.25,0v-5a.63.63,0,0,0-1.25,0Z"/><path class="cls-2" d="M83.86,66.22V83.06a.63.63,0,0,0,1.25,0V66.22a.63.63,0,0,0-1.25,0Z"/><path class="cls-2" d="M85.24,80.54a4.49,4.49,0,0,1-.41.86,17.11,17.11,0,0,1-2.06,2.8c-3.72,4.26-8.45,7.63-13.16,10.72a.63.63,0,0,0-.22.85c2.45,4.62.17,10.78-2.46,14.87a.63.63,0,0,0,.86.86A108.05,108.05,0,0,0,84,99.44a46.13,46.13,0,0,0,4.7-4.88c.7-.86,1.65-1.77,1.71-2.92a32.19,32.19,0,0,0-.56-8c-.58-2.79-2-6.2-5.49-5.52-.79.16-.45,1.37.33,1.21,2.87-.57,3.72,3.22,4.08,5.3a26.3,26.3,0,0,1,.39,7c-.1.91-1.2,1.88-1.92,2.72a49.23,49.23,0,0,1-4.49,4.53,105,105,0,0,1-9.78,7.69c-1.89,1.33-3.81,2.63-5.77,3.84l.85.85c2.89-4.5,5.13-11.08,2.46-16.13l-.23.86c4.84-3.17,9.74-6.65,13.54-11.06a12.24,12.24,0,0,0,2.67-4.07.63.63,0,0,0-1.21-.33Z"/><path class="cls-2" d="M59.76,87c-.12,4.23,1,8.6,4.12,11.62l.13-1A16,16,0,0,0,57.6,111l1.22-.17c-1.11-3.2-2.07-6.47-2.88-9.76a44.87,44.87,0,0,1-1.33-7.55c-.15-2.3.17-4.71,2.08-6.24a6.72,6.72,0,0,1,3.7-1.41c.8,0,.8-1.29,0-1.25a7.32,7.32,0,0,0-7,6.32,23.36,23.36,0,0,0,.68,7.58c.55,2.73,1.28,5.43,2.07,8.1.46,1.52.93,3,1.46,4.54.22.63,1.26.58,1.23-.16a14,14,0,0,1,2.78-9,17.2,17.2,0,0,1,3-3.19.65.65,0,0,0,.13-1C61.88,95,60.9,91,61,87a.63.63,0,0,0-1.25,0Z"/><path class="cls-2" d="M70.7,99c-1.72.91-3.46,1.81-5.21,2.66A5.11,5.11,0,0,0,63,103.3a6.92,6.92,0,0,0-.76,3.17,15.23,15.23,0,0,0,0,2.24c.08.79,1.33.8,1.25,0a9.22,9.22,0,0,1,.41-4.49,1.45,1.45,0,0,1,.72-.81c.44-.21.9-.4,1.34-.62,1.11-.53,2.21-1.09,3.3-1.65l2-1.07c.71-.38.08-1.46-.63-1.08Z"/><path class="cls-2" d="M59.78,102.85a4.08,4.08,0,0,0,1.69,2.44,3.68,3.68,0,0,0,1.36.51.69.69,0,0,0,.49-.06.63.63,0,0,0,.28-.38.62.62,0,0,0-.43-.76,3.92,3.92,0,0,1-.59-.15l-.12,0,.06,0-.08,0-.23-.12-.21-.14s-.14-.1,0,0,0,0-.05,0-.22-.21-.32-.32l-.07-.09c-.09-.1.09.13,0,0l-.12-.17c-.07-.11-.13-.22-.19-.33l-.08-.15,0-.07c0-.06.07.16.05.1l0,0a1.06,1.06,0,0,1-.09-.25,2,2,0,0,1-.07-.26.63.63,0,0,0-.77-.43.64.64,0,0,0-.44.76Z"/><path class="cls-2" d="M53.63,94.25C49.87,96.82,46,99.19,42,101.39A103.59,103.59,0,0,1,32.21,106a24.36,24.36,0,0,0-8.54,5.56,17.74,17.74,0,0,0-3.89,6.79c-.24.77,1,1.1,1.21.34,1.86-5.74,6.32-9.31,11.78-11.58A117,117,0,0,0,50.22,98c1.36-.86,2.72-1.73,4-2.63.66-.46,0-1.54-.63-1.08Z"/><path class="cls-2" d="M88.69,93.37a81.09,81.09,0,0,0,14.91,10c6.65,3.54,11.82,8.76,13.68,16.21a.63.63,0,0,0,1.21-.33c-1.78-7.13-6.51-12.49-12.78-16.14-5.59-3.25-11.21-6.34-16.14-10.58-.6-.52-1.49.36-.88.88Z"/><path class="cls-2" d="M40.2,34.67a7.28,7.28,0,0,0-9.32,1.17c-.56.57.32,1.46.89.88a6,6,0,0,1,5.31-1.92,6,6,0,0,1,2.49,1c.67.45,1.3-.63.63-1.08Z"/><path class="cls-2" d="M54.5,35.63c.08-.07-.16.1,0,0l.45-.26a5.46,5.46,0,0,1,1.71-.5c2.51-.33,5,.74,7.13,2a.63.63,0,0,0,.63-1.08c-2.39-1.41-5.19-2.51-8-2.12a5.54,5.54,0,0,0-2.83,1.13c-.61.52.28,1.41.89.88Z"/><path class="cls-2" d="M44.2,44.12A92.24,92.24,0,0,1,42,53.42a5.23,5.23,0,0,0,.22,4.26,4.85,4.85,0,0,0,2.8,1.94,10.43,10.43,0,0,0,3.34.38c.8,0,.8-1.28,0-1.25-2.27.09-5.56-.49-5.46-3.38a16.2,16.2,0,0,1,.83-3.55c.34-1.28.65-2.56.93-3.85s.51-2.33.72-3.51c.13-.79-1.07-1.13-1.21-.34Z"/><path class="cls-2" d="M46.72,68.58a6.57,6.57,0,0,1,1.77.21,16.37,16.37,0,0,0,3.28.18,7.83,7.83,0,0,0,6.57-4c.39-.7-.68-1.34-1.08-.63a6.67,6.67,0,0,1-5.94,3.43,17.38,17.38,0,0,1-2.79-.2,6.94,6.94,0,0,0-1.81-.21c-.79.1-.8,1.35,0,1.25Z"/><path class="cls-2" d="M41,44.79a5.42,5.42,0,0,0-1-3.19,2.47,2.47,0,0,0-3.22-.71A.63.63,0,0,0,37.41,42a1.14,1.14,0,0,1,1.51.3,1.49,1.49,0,0,0-1.22.31l-.11.05a1.22,1.22,0,0,0-.56.84A4.32,4.32,0,0,0,36.64,45a5.24,5.24,0,0,0,.71,3.18,2.57,2.57,0,0,0,1.19,1.38,1.6,1.6,0,0,0,2.07-.69A5.75,5.75,0,0,0,41,44.79Z"/><path class="cls-2" d="M60.47,44.79a5.35,5.35,0,0,0-1-3.19,2.48,2.48,0,0,0-3.23-.71A.63.63,0,0,0,56.85,42a1.14,1.14,0,0,1,1.51.3,1.5,1.5,0,0,0-1.22.31l-.1.05a1.23,1.23,0,0,0-.57.84A4.79,4.79,0,0,0,56.08,45a5.38,5.38,0,0,0,.71,3.18A2.61,2.61,0,0,0,58,49.56a1.62,1.62,0,0,0,2.08-.69A5.75,5.75,0,0,0,60.47,44.79Z"/></g></g></svg>