<svg xmlns="http://www.w3.org/2000/svg" viewBox="0 0 142.03 142.3"><defs><style>.cls-1{fill:#f0caa9;}.cls-2{fill:#2d2d4a;}</style></defs><g id="圖層_2" data-name="圖層 2"><g id="OBJECTS"><path class="cls-1" d="M140.49,39.83a37.66,37.66,0,0,0-7.59-13.41,3.21,3.21,0,0,0-1.42-1.57c-6.34-6.62-14.83-11.24-23.7-14.19C77.32.54,37,4.3,17.71,32.78a3.18,3.18,0,0,0-.57,1.66,32.53,32.53,0,0,0-3.73,11.41c-1.36,10.36,1.09,21.41-3.34,31.22C6.84,84.21,1.76,89.88.44,97.85-1.73,110.92,4.32,124.57,14.27,133c11.31,9.59,27.07,11.34,41,7.13C71.15,135.33,81.78,123.86,91,110.6c4.78-6.87,9.32-14,15.37-19.86s14-9.79,20.86-14.86C139,67.19,145.08,54.31,140.49,39.83Zm-95.9,94.84.08,0h-.11Z"/><path class="cls-2" d="M70.3,53.71a5.75,5.75,0,0,0-1.1-3.43,2.67,2.67,0,0,0-3.47-.77.68.68,0,0,0,.68,1.17A1.21,1.21,0,0,1,68,51a1.59,1.59,0,0,0-1.31.33l-.11,0a1.3,1.3,0,0,0-.61.91,4.47,4.47,0,0,0-.42,1.64,5.76,5.76,0,0,0,.76,3.43,2.76,2.76,0,0,0,1.29,1.48,1.73,1.73,0,0,0,2.23-.75A6.15,6.15,0,0,0,70.3,53.71Z"/><path class="cls-2" d="M51.51,53.71a5.82,5.82,0,0,0-1.1-3.43,2.68,2.68,0,0,0-3.48-.77.68.68,0,0,0,.68,1.17,1.22,1.22,0,0,1,1.63.33,1.61,1.61,0,0,0-1.32.33l-.11,0a1.33,1.33,0,0,0-.61.91,4.9,4.9,0,0,0-.42,1.64,5.69,5.69,0,0,0,.77,3.43,2.79,2.79,0,0,0,1.28,1.48,1.73,1.73,0,0,0,2.23-.75A6.2,6.2,0,0,0,51.51,53.71Z"/><path class="cls-2" d="M52,72.59a3.05,3.05,0,0,1,2.46-1.2,12.09,12.09,0,0,0,2.09.29,10.24,10.24,0,0,0,1.64-.37c1.61-.41,3.08.4,4.69.37a6.43,6.43,0,0,0,3.91-1.37c.68-.54-.27-1.48-1-1a5.29,5.29,0,0,1-4.35.85,9.23,9.23,0,0,0-2.5-.38,9.25,9.25,0,0,0-1.74.35,3.17,3.17,0,0,1-1.7.09,4.16,4.16,0,0,0-2.13-.12A4.72,4.72,0,0,0,51,71.63c-.55.66.4,1.62,1,1Z"/><path class="cls-2" d="M53.21,73.05a10.27,10.27,0,0,0,2.46.46,12.49,12.49,0,0,0,5.42-.72.7.7,0,0,0,.47-.83.69.69,0,0,0-.83-.47,10.86,10.86,0,0,1-7.16.26c-.82-.28-1.18,1-.36,1.3Z"/><path class="cls-2" d="M44.9,23.41A37.21,37.21,0,0,0,42.55,40c.17,2.22.6,4.4.7,6.64q.12,3,.1,6.11a88,88,0,0,1-.62,10.89,13,13,0,0,0-.31,2.63,9.26,9.26,0,0,0,.7,2.65,30.31,30.31,0,0,0,4,7C50.32,80.07,55,85,60.67,85.24c4.26.19,8.74-1.12,12.69-2.59a47.38,47.38,0,0,0,6.43-2.87c.76-.42.08-1.59-.68-1.16a42.22,42.22,0,0,1-15.88,5.16,11.64,11.64,0,0,1-8-1.9,27.22,27.22,0,0,1-6.34-6,31.54,31.54,0,0,1-4.21-6.79,10.47,10.47,0,0,1-.86-2.66A8.4,8.4,0,0,1,44,64a80.76,80.76,0,0,0,.65-9.7A59.77,59.77,0,0,0,44.28,43,35.71,35.71,0,0,1,46.2,23.77c.33-.8-1-1.15-1.3-.36Z"/><path class="cls-2" d="M22,122q3.72-4,7.54-7.9c1.95-2,3.93-4,6-5.88a19.37,19.37,0,0,1,4.42-3.6c2-1,4.46-1.08,6.61-1.27,3-.28,6-.4,9-.55,2.66-.13,5.34-.24,8-.58a10.25,10.25,0,0,0,4.94-1.72c5.22-3.86,4.44-12.36,3.9-18-.08-.86-1.43-.86-1.34,0a38,38,0,0,1-.13,11,9.51,9.51,0,0,1-3,5.67,9.2,9.2,0,0,1-5,1.72c-2.67.32-5.36.41-8,.54-2.93.15-5.87.27-8.79.56a23.76,23.76,0,0,0-6.37,1.2,14.94,14.94,0,0,0-4.15,3.05c-2,1.79-3.86,3.66-5.73,5.55q-4.5,4.53-8.83,9.21c-.59.64.36,1.59.95,1Z"/><path class="cls-2" d="M46.1,16.6c-2.62,6.39-1.34,14.22,4,18.77a.68.68,0,0,0,1.12-.66c-.17-1-.29-2-.37-3.06-.11-1.44-.35-3.33.3-4.67l-1.25-.34c.31,9.19,7,17.31,15.41,20.48a31.9,31.9,0,0,0,6.53,1.65c1.06.15,2.12.27,3.19.34.71,0,1.43.08,2.15.09h1.5c.38.11.48,0,.3-.21.56.17,1.32,1.31,1.7,1.71a53.21,53.21,0,0,1,3.81,4.54c3,4,5.78,8.81,6.26,13.94.33,3.55-1.2,7-2.69,10.17C84.15,87.62,78.81,95.25,75.94,104c-1.19,3.61-2,7.58-1,11.34,1,4.1,3.31,8.14,7.18,10.1,3,1.53,6.38,1.68,9.68,2,3.07.31,5.81,1.65,8.85,2.11,3.44.51,7.19.44,10.37-1.13a9.11,9.11,0,0,0,3.69-3.3,12.85,12.85,0,0,0,1.56-5.73c.49-4.41,2.72-8.45,4.68-12.35,2.15-4.3,4.19-8.71,4.87-13.51,1.52-10.67-4.26-19.92-8.52-29.2a34.21,34.21,0,0,1-3.54-14.61c0-3.6.9-7.12,1.08-10.71a44.11,44.11,0,0,0-2.46-17.39A31.41,31.41,0,0,0,100.88,6.56C93.84,1.69,85.08.05,76.66,0c-15.58-.09-35,4.06-40.95,20.52A39.85,39.85,0,0,0,34,37.12c.5,6,2,11.8,2.42,17.78a39.41,39.41,0,0,1-1.77,16,25.93,25.93,0,0,1-4.13,7.43C28.86,80.4,26.67,81.92,25,84c-5.43,6.63-4.63,16.52-2.1,24.16.89,2.69,2,5.62,4,7.73.59.63,1.54-.32.95-1-2-2.2-3.15-5.45-4-8.27A32.93,32.93,0,0,1,22.46,94a16.78,16.78,0,0,1,5.67-11.29A27.7,27.7,0,0,0,36.4,69.9c2.54-8.38,1.34-17-.08-25.48a63.56,63.56,0,0,1-1-15A27.87,27.87,0,0,1,41.11,13.6c5-6,12.46-9.12,19.93-10.71C76.9-.48,97.62.39,107.6,15.21a36.3,36.3,0,0,1,5.7,16.7,49.89,49.89,0,0,1,.1,8.2c-.27,3.71-1.14,7.33-1,11.08.39,10,6.42,18,9.83,27,1.93,5.13,3.08,10.55,2.09,16-.83,4.62-2.9,8.84-5,13-1.85,3.68-3.8,7.47-4.37,11.61-.28,2-.36,4-1.52,5.75a8.14,8.14,0,0,1-4.06,3.1,18.37,18.37,0,0,1-10.34.23c-1.42-.33-2.74-.94-4.14-1.3a28.31,28.31,0,0,0-4.2-.59c-3.36-.31-6.85-.66-9.62-2.78-3.37-2.57-5.26-7.3-5.24-11.47s1.48-8.17,3.12-11.89c1.85-4.19,4.09-8.19,6.29-12.21a93.11,93.11,0,0,0,5.47-11.06,16.45,16.45,0,0,0,.88-10.27,34.18,34.18,0,0,0-6.52-12.48C84,52.37,82.76,51,81.5,49.62a10.59,10.59,0,0,0-1.57-1.57c-.74-.47-2.26-.18-3.12-.2-1.27,0-2.55-.12-3.81-.27a32.06,32.06,0,0,1-6.57-1.48,23,23,0,0,1-8.72-5.33,22.79,22.79,0,0,1-6.19-12,12.66,12.66,0,0,1-.27-2.13c0-.62-1-1-1.26-.34a10.12,10.12,0,0,0-.5,5.07,35.23,35.23,0,0,0,.44,3.7l1.12-.65C46,30.15,45,22.93,47.39,17c.33-.81-1-1.15-1.29-.36Z"/><path class="cls-2" d="M46.1,101.85a57.77,57.77,0,0,1-7.5,19.34c-.47.73.7,1.4,1.17.68a53.31,53.31,0,0,0,5.72-12.72,66.52,66.52,0,0,0,1.9-6.94c.18-.84-1.11-1.2-1.29-.36Z"/><path class="cls-2" d="M76.13,116.84a34.7,34.7,0,0,1-5.18.82,108.51,108.51,0,0,1-15.72.35c-4.61-.2-9.2-.62-13.78-1.19-.85-.11-.85,1.24,0,1.34,10.92,1.36,22.4,2.21,33.33.33.57-.1,1.15-.2,1.71-.35a.67.67,0,0,0-.36-1.3Z"/><path class="cls-2" d="M54.88,55.14c-1.09,2.38-2.13,4.8-3,7.27a3.09,3.09,0,0,0-.24,1.77,1.87,1.87,0,0,0,.87,1.12,5.52,5.52,0,0,0,3,.51,14.21,14.21,0,0,0,2.26-.25c.85-.16.49-1.46-.35-1.3l-.44.08h-.1l-.27,0c-.2,0-.41.05-.61.06a6.12,6.12,0,0,1-2.57-.19,2.38,2.38,0,0,1-.32-.16A1.69,1.69,0,0,0,53,64c.11.14-.09-.22,0-.05a.36.36,0,0,1,0-.27,5.12,5.12,0,0,1,.28-.92c.5-1.45,1.08-2.87,1.68-4.28.37-.88.75-1.75,1.14-2.62s-.8-1.46-1.16-.67Z"/><path class="cls-2" d="M90.69,67.66l-.52.71-.12.16s0,0,0,0l-.08.1c-.11.14-.22.29-.34.43q-.37.48-.78.93a24.15,24.15,0,0,1-4.41,4.16.68.68,0,0,0-.24.92.67.67,0,0,0,.92.24,25.5,25.5,0,0,0,4.69-4.36c.71-.83,1.4-1.69,2-2.59a.68.68,0,0,0-.24-.92.69.69,0,0,0-.92.24Z"/><path class="cls-2" d="M46.52,46.94a4.8,4.8,0,0,1,.53-.47c-.15.12.11-.08.16-.11l.3-.19.36-.21.2-.09.11,0a2.87,2.87,0,0,1,1.63-.2,3.54,3.54,0,0,1,2,1.32.68.68,0,0,0,1-.95,4.83,4.83,0,0,0-2.51-1.65,4.1,4.1,0,0,0-2.3.14A6.12,6.12,0,0,0,45.57,46c-.6.62.35,1.58,1,.95Z"/></g></g></svg>