<svg xmlns="http://www.w3.org/2000/svg" viewBox="0 0 142.03 136.73"><defs><style>.cls-1{fill:#e89299;}.cls-2{fill:#2d2d4a;}</style></defs><g id="圖層_2" data-name="圖層 2"><g id="OBJECTS"><path class="cls-1" d="M140.49,34.27a37.49,37.49,0,0,0-7.59-13.41,3.21,3.21,0,0,0-1.42-1.57C125.14,12.67,116.65,8,107.78,5.1,77.32-5,37-1.26,17.71,27.22a3.18,3.18,0,0,0-.57,1.66,32.53,32.53,0,0,0-3.73,11.41c-1.36,10.35,1.09,21.4-3.34,31.22C6.84,78.65,1.76,84.31.44,92.29-1.73,105.36,4.32,119,14.27,127.44c11.31,9.59,27.07,11.35,41,7.14C71.15,129.76,81.78,118.3,91,105c4.78-6.88,9.32-14,15.37-19.86,6.19-6,14-9.79,20.86-14.87C139,61.62,145.08,48.74,140.49,34.27ZM44.59,129.1l.08.05h-.11Z"/><path class="cls-2" d="M62.26,63.78a5.84,5.84,0,0,0-1.1-3.43,2.67,2.67,0,0,0-3.48-.76.67.67,0,0,0,.68,1.16,1.22,1.22,0,0,1,1.63.33,1.58,1.58,0,0,0-1.31.33l-.12.05a1.32,1.32,0,0,0-.6.91A4.7,4.7,0,0,0,57.53,64a5.75,5.75,0,0,0,.77,3.43,2.79,2.79,0,0,0,1.28,1.48,1.72,1.72,0,0,0,2.23-.75A6.2,6.2,0,0,0,62.26,63.78Z"/><path class="cls-2" d="M39.53,63.78a5.78,5.78,0,0,0-1.11-3.43A2.66,2.66,0,0,0,35,59.59a.67.67,0,0,0,.68,1.16,1.21,1.21,0,0,1,1.62.33,1.59,1.59,0,0,0-1.31.33l-.11.05a1.3,1.3,0,0,0-.61.91A4.9,4.9,0,0,0,34.8,64a5.74,5.74,0,0,0,.76,3.43,2.8,2.8,0,0,0,1.29,1.48,1.72,1.72,0,0,0,2.23-.75A6.2,6.2,0,0,0,39.53,63.78Z"/><path class="cls-2" d="M44.84,81.08a3,3,0,0,1,2.45-1.19,12.09,12.09,0,0,0,2.09.29A10.36,10.36,0,0,0,51,79.81c1.6-.41,3.07.4,4.68.37a6.38,6.38,0,0,0,3.91-1.38c.69-.53-.27-1.47-.95-1a5.29,5.29,0,0,1-4.35.85,9.23,9.23,0,0,0-2.5-.38,9.41,9.41,0,0,0-1.74.35,3.17,3.17,0,0,1-1.7.09,4.13,4.13,0,0,0-2.12-.12,4.68,4.68,0,0,0-2.37,1.49c-.55.66.39,1.62,1,1Z"/><path class="cls-2" d="M46.08,81.55a10.79,10.79,0,0,0,2.46.46A12.49,12.49,0,0,0,54,81.29a.7.7,0,0,0,.47-.83A.68.68,0,0,0,53.6,80a10.86,10.86,0,0,1-7.16.26c-.82-.28-1.17,1-.36,1.3Z"/><path class="cls-2" d="M67.48,92.73A31.65,31.65,0,0,1,58.56,94,34.13,34.13,0,0,1,45.5,91.94,20.18,20.18,0,0,1,33.81,80c-1.68-4.64-1.93-9.63-1.78-14.52,0-1.87.19-3.73.25-5.6.1-2.89-.2-5.8-.33-8.68q-.15-3-.28-6c0-.62-.05-1.23-.08-1.84a2,2,0,0,0,0-.43c-.07-.23.15-.16-.08.17a65.68,65.68,0,0,0,5.36-9.31l-1.25-.34c.46,4.07,2.89,8,5.48,11.07a34,34,0,0,0,11,8.29c6,2.92,12.5,4,18.89,5.75,2.41.64,5.89,1.38,7.35,3.64.94,1.44,1.14,3.64,1.35,5.31a26.09,26.09,0,0,1,.21,3.07h1.35A27.54,27.54,0,0,1,82,63.36c.37-1.5.94-3.34,2.25-4.3a3.23,3.23,0,0,1,3.87.36c2.78,2.2,3.3,6.7,2.54,9.92a9.86,9.86,0,0,1-3.15,5.3c-1,.9-2.78,1.19-3.24,2.51a38.56,38.56,0,0,0-1.66,16.59l.68-.67a23.33,23.33,0,0,0-9.43,2.84,35.49,35.49,0,0,1-3.94,2.22,11.26,11.26,0,0,1-3.67.78,9.72,9.72,0,0,1-3.59-.44l.49.65.53-4.75c.1-.85-1.25-.85-1.34,0l-.53,4.75a.67.67,0,0,0,.49.65,12.48,12.48,0,0,0,10.36-1.55,23,23,0,0,1,10.63-3.81c.33,0,.71-.29.67-.67-.55-5.27-.37-11.32,1.64-16.32a1.31,1.31,0,0,1,.12-.35c-.33.32.26.13.38.08a4.76,4.76,0,0,0,.89-.48,10.51,10.51,0,0,0,2.59-2.2,11.57,11.57,0,0,0,2.56-5.74c.55-3.55-.24-8-3.22-10.38a4.76,4.76,0,0,0-4.42-.92,5.73,5.73,0,0,0-3.12,3.48A24.35,24.35,0,0,0,79.9,70.6a.68.68,0,0,0,1.35,0,27.33,27.33,0,0,0-1-7.2A6.64,6.64,0,0,0,76.3,59a41.64,41.64,0,0,0-8.2-2.53c-3.45-.83-6.94-1.57-10.3-2.73-8.12-2.8-15.92-8-19.53-16a19.23,19.23,0,0,1-1.09-3.12c-.08-.3-.14-.6-.2-.9s-.06-.43,0-.19c-.07-.58-.94-1-1.26-.34a66.51,66.51,0,0,1-3.28,6.12c-.63,1-1.44,2-2,3.07a2.57,2.57,0,0,0-.15,1.46l.21,4.57C30.63,51.9,31,55.48,31,59c0,1.88-.17,3.76-.24,5.64-.2,5,0,10.18,1.56,15A21.45,21.45,0,0,0,43.21,92.39a33.34,33.34,0,0,0,13.82,3A34,34,0,0,0,67.84,94c.83-.26.47-1.56-.36-1.3Z"/><path class="cls-2" d="M71.92,18.58A19.07,19.07,0,0,1,73,9.35,8.15,8.15,0,0,1,78.47,4.4a15,15,0,0,1,8.93.1A11.58,11.58,0,0,1,94,10a30.38,30.38,0,0,1,1.7,5.28,48.41,48.41,0,0,0,1.84,5A35.44,35.44,0,0,0,102,28.09a13.15,13.15,0,0,1,1.74,2.27,7,7,0,0,1,.55,2.43c.31,4.63-2.17,10.94-7.78,10.08-.85-.13-1.21,1.16-.36,1.29,5.36.83,8.63-3.59,9.35-8.44a10.64,10.64,0,0,0-.59-6A16.37,16.37,0,0,0,103,27.2a31.56,31.56,0,0,1-2.62-4.06,39.94,39.94,0,0,1-2.58-5.74c-.75-2-1.16-4.18-1.87-6.24a12.61,12.61,0,0,0-5.94-7c-4.91-2.64-13-2.72-16.73,2-2.61,3.31-3.2,8.29-2.71,12.39.1.85,1.44.86,1.34,0Z"/><path class="cls-2" d="M83.43,85.76A23.83,23.83,0,0,0,97.38,75c3.2-5.51,3.51-11.78,2.81-18a65.9,65.9,0,0,0-5.43-20.65,34.15,34.15,0,0,0-7.82-11c-4.12-3.7-9.69-5.95-14.93-7.52a34.93,34.93,0,0,0-17.62-1A55.45,55.45,0,0,0,41.8,21c-4.18,2-8.24,4.77-10.95,8.63a15.3,15.3,0,0,0-2,13.29,23.53,23.53,0,0,0,1.68,4.13c.39.78,1.55.1,1.16-.68-2.25-4.43-3.13-9.54-.8-14.13,2-4,5.66-6.81,9.45-8.94a50.94,50.94,0,0,1,12.14-4.77A32.26,32.26,0,0,1,67.32,18c6,1.19,12.29,3.44,17.23,7.08A28.3,28.3,0,0,1,92,33.9a55.8,55.8,0,0,1,6,17.52c1.2,6.53,2.06,13.52-.38,19.87A22.69,22.69,0,0,1,83.43,84.36l-.36.1a.68.68,0,0,0,.36,1.3Z"/><path class="cls-2" d="M89.57,63.78c-.28-2-2.15-3.84-4.24-3a4,4,0,0,0-2,2.53,14.31,14.31,0,0,0-.81,4,12.79,12.79,0,0,0,.19,4,.67.67,0,0,0,1.3-.36,9.8,9.8,0,0,1-.19-2.77,15.87,15.87,0,0,1,.49-3.49,4.81,4.81,0,0,1,1.22-2.42l.12-.09.15-.08a1.56,1.56,0,0,1,.68-.09,1.59,1.59,0,0,1,1.1.54,3,3,0,0,1,.74,1.67.68.68,0,0,0,.83.47.7.7,0,0,0,.47-.83Z"/><path class="cls-2" d="M62.64,98.47c-2-.53-2.64,2.39-2.9,3.68a6.91,6.91,0,0,1-4.12,5c-6.2,3.14-13.39,2.83-19.78,5.36A11.45,11.45,0,0,0,29,118.8c-.32.81,1,1.16,1.29.36,2.32-5.78,9.79-6.61,15.11-7.61A47.34,47.34,0,0,0,54.82,109c2.08-.86,4.22-2,5.37-4a9.45,9.45,0,0,0,.94-2.94A3.82,3.82,0,0,1,62,99.9c.17-.16.38-.11.28-.13a.67.67,0,0,0,.36-1.3Z"/><path class="cls-2" d="M83.45,94.39c1.8-.48,1.32,2.23,1.23,3.26-.17,1.92-.35,4,.47,5.83,1.1,2.44,4.15,3.32,6.44,4.25,6.48,2.61,13.13,4.89,19.81,7a21.51,21.51,0,0,1,4.16,1.56,27.66,27.66,0,0,1,4.54,3.22c.65.56,1.61-.38,1-.95a22.1,22.1,0,0,0-8.22-4.8c-2.94-.85-5.84-1.85-8.74-2.84-3.77-1.29-7.54-2.62-11.24-4.08-2.54-1-6.19-1.89-6.82-5-.46-2.28.45-4.58.06-6.83a2.33,2.33,0,0,0-3-1.92.67.67,0,0,0,.36,1.3Z"/><path class="cls-2" d="M45.55,62.17c-.83-2.41-3.2-4.33-5.3-5.57A26,26,0,0,0,32,53.68a5.15,5.15,0,0,0-4.31,1.09c-2.86,2.34-3,6.59-1.52,9.72a13.91,13.91,0,0,0,5,5.52,12.45,12.45,0,0,0,7,2.43,8.08,8.08,0,0,0,6.18-2.36c2-2.18,1.89-5.23,1.22-7.91a.67.67,0,0,0-1.29.36c.52,2.11.71,4.62-.73,6.43A6.37,6.37,0,0,1,39,71.08c-4.4.29-8.93-2.57-11.15-6.31-1.54-2.58-1.92-6.32.34-8.64a3.86,3.86,0,0,1,3.2-1.19,21.88,21.88,0,0,1,7.39,2.35,13.82,13.82,0,0,1,4.53,3.61,8.27,8.27,0,0,1,.8,1.22c.07.13.14.27.2.4-.07-.14,0-.09,0,0C44.54,63.34,45.84,63,45.55,62.17Z"/><path class="cls-2" d="M53.8,62.53a.3.3,0,0,1,0-.1c-.09.23,0-.1.09-.19a8.48,8.48,0,0,1,.67-1.08A12,12,0,0,1,58,58.09a22,22,0,0,1,7.3-2.86c1.43-.31,2.7-.53,4,.34,2.53,1.71,2.71,5.36,1.65,8a12.08,12.08,0,0,1-4.15,5,11.86,11.86,0,0,1-6.27,2.56,7.24,7.24,0,0,1-5.54-1.68c-1.84-1.8-1.71-4.56-1.13-6.87a.67.67,0,0,0-1.3-.36c-.6,2.41-.75,5.18.74,7.3a7.29,7.29,0,0,0,5.15,2.88c5,.65,10.06-2.37,12.75-6.46,2-3.06,2.51-7.41,0-10.37a5.32,5.32,0,0,0-3.87-2,12.85,12.85,0,0,0-3.47.62,24.57,24.57,0,0,0-4.34,1.53c-2.71,1.26-5.95,3.46-7,6.45C52.22,63,53.52,63.34,53.8,62.53Z"/><path class="cls-2" d="M47.21,66.81c-1.54-.53-3.09.69-3.89,1.88a5.2,5.2,0,0,0-1,3.81,3.63,3.63,0,0,0,1.86,2.35,4.61,4.61,0,0,0,3,.52.67.67,0,1,0-.35-1.29h-.08l-.25,0a4.36,4.36,0,0,1-.51,0c.13,0-.14,0-.17,0L45.6,74l-.26-.08-.16-.06,0,0a3.17,3.17,0,0,1-.89-.57,2,2,0,0,1-.55-.82,3.54,3.54,0,0,1,.61-2.79,4.18,4.18,0,0,1,1-1.13,2.29,2.29,0,0,1,.76-.39l.24-.05h.42c.17,0-.15,0,0,0l.1,0,.09,0c.82.28,1.17-1,.35-1.3Z"/><path class="cls-2" d="M45.8,63.48l.11-.11.14-.12c-.15.13,0,0,.06,0a5.3,5.3,0,0,1,.57-.33l.15-.07h0l.11-.05.4-.13a6.86,6.86,0,0,1,5,1c.76.42,1.44-.74.68-1.16a8.15,8.15,0,0,0-6-1.11,4.86,4.86,0,0,0-2.21,1.21c-.58.63.37,1.59,1,.95Z"/></g></g></svg>